<svg width="18" height="16" viewBox="0 0 18 16" fill="#34C184" xmlns="http://www.w3.org/2000/svg">
<path id="Vector" d="M9.00087 15.5C8.97904 15.5 8.95748 15.4958 8.93736 15.4876L8.9245 15.479L8.89782 15.4676C8.78888 15.4076 8.6808 15.3461 8.57361 15.283C7.25131 14.4972 6.01556 13.5741 4.88683 12.5292C2.87521 10.652 0.833984 7.94449 0.833984 4.66685C0.833984 2.36015 2.78009 0.500063 5.16789 0.500069L5.17033 0.500057C5.83009 0.496826 6.48208 0.642373 7.07782 0.925875C7.67356 1.20938 8.19772 1.62354 8.61132 2.13756L9.00087 2.62169L9.39042 2.13756C9.80411 1.62343 10.3284 1.20921 10.9243 0.925701C11.5202 0.642195 12.1723 0.496705 12.8322 0.500063H12.8347C15.2216 0.500063 17.1678 2.36009 17.1678 4.66685C17.1678 7.94555 15.1263 10.6531 13.1148 12.5284C11.986 13.5735 10.7501 14.4965 9.42774 15.2823C9.32015 15.3459 9.21166 15.408 9.10229 15.4685L9.07973 15.4804C9.05544 15.4933 9.02837 15.5 9.00087 15.5Z" stroke="#34C184"/>
</svg>
