<svg xmlns="http://www.w3.org/2000/svg" width="18" height="18" viewBox="0 0 18 18" fill="none">
<path d="M17.3672 8.48945L8.5125 0.804297C8.44453 0.745703 8.35781 0.712891 8.26641 0.712891L6.19219 0.712891C6.01875 0.712891 5.93906 0.928516 6.07031 1.04102L14.2781 8.16602L0.5625 8.16602C0.459375 8.16602 0.375 8.25039 0.375 8.35352L0.375 9.75977C0.375 9.86289 0.459375 9.94727 0.5625 9.94727L14.2758 9.94727L6.06797 17.0723C5.93672 17.1871 6.01641 17.4004 6.18984 17.4004H8.33438C8.37891 17.4004 8.42344 17.384 8.45625 17.3535L17.3672 9.62383C17.4483 9.55327 17.5134 9.46613 17.558 9.36828C17.6025 9.27044 17.6256 9.16416 17.6256 9.05664C17.6256 8.94912 17.6025 8.84284 17.558 8.745C17.5134 8.64715 17.4483 8.56001 17.3672 8.48945Z" fill="#121213"/>
</svg>