<svg width="106" height="107" viewBox="0 0 106 107" fill="none" xmlns="http://www.w3.org/2000/svg">
<g id="Group">
<path id="Vector" d="M51.5104 0H51.4959C37.9672 0 27 11.9116 27 26.6052V26.621C27 41.3146 37.9672 53.2262 51.4959 53.2262H51.5104C65.0391 53.2262 76.0062 41.3146 76.0062 26.621V26.6052C76.0062 11.9116 65.0391 0 51.5104 0Z" fill="#004EEA"/>
<path id="Vector_2" d="M101.403 83.7697C101.244 83.6126 101.099 83.4554 100.94 83.2983C100.94 83.2983 100.94 83.2983 100.955 83.2825C101.143 83.1097 101.316 82.9368 101.49 82.7482C103.704 80.3439 105.078 77.0123 105.078 73.335C105.078 72.1879 104.948 71.0721 104.688 70.0035C103.328 64.2676 98.5384 60.0246 92.8231 60.0246H88.4969C87.6288 56.143 84.4167 53.2515 80.568 53.2515C76.7192 53.2515 73.5071 56.143 72.639 60.0246H68.3128C64.9271 60.0246 61.8741 61.5175 59.6459 63.9219C58.1267 65.5719 57.0126 67.6463 56.4483 69.9878C56.1878 71.0564 56.0576 72.1721 56.0576 73.335C56.0576 77.2952 57.6492 80.8467 60.1813 83.2825C60.1813 83.2825 60.1813 83.2983 60.1957 83.2983C60.0366 83.4397 59.8774 83.5968 59.7327 83.7697L59.6459 83.864C57.3164 86.4412 56.1444 89.8042 56.1444 93.1829C56.1444 96.5616 57.3454 99.9874 59.7327 102.596C64.3628 107.625 71.7998 107.782 76.6035 103.068C76.7337 102.942 76.8494 102.816 76.9652 102.69C78.1951 101.355 79.1645 99.736 79.7722 97.9445C80.2786 96.4987 80.5535 94.9273 80.5535 93.2772C80.5535 94.9273 80.8284 96.4987 81.3348 97.9445C81.9425 99.7046 82.883 101.276 84.055 102.58C84.0839 102.612 84.1128 102.643 84.1418 102.675C88.931 107.782 96.6285 107.751 101.374 102.58C103.762 99.9874 104.963 96.5773 104.963 93.1672C104.963 89.7571 103.791 86.4412 101.461 83.8483C101.432 83.8169 101.403 83.7854 101.374 83.754L101.403 83.7697Z" fill="#FF9930"/>
<path id="Vector_3" d="M42.775 60.7946C38.3475 55.9858 32.2271 53 25.4557 53C18.6842 53 12.5639 55.9858 8.1219 60.7946C3.67994 65.6033 0.945312 72.2664 0.945312 79.6052V106.21C14.4738 106.21 25.4412 94.2986 25.4412 79.6052C25.4412 94.2986 36.4086 106.21 49.9371 106.21V79.6052C49.9371 72.2664 47.188 65.6033 42.7605 60.7946H42.775Z" fill="#34C083"/>
</g>
</svg>
