<svg width="144" height="24" viewBox="0 0 144 24" fill="none" xmlns="http://www.w3.org/2000/svg">
<g id="Group">
<path id="Vector" d="M0 20.8885V18.5218H21.1295V20.8885H0ZM1.89338 14.3669V12.0528H4.89122V5.85987H7.61295V12.0528H13.556V5.85987H16.2778V12.0528H19.2756V14.3669H1.88023H1.89338ZM2.19579 4.97892V2.66479H18.9469V4.97892H2.18264H2.19579Z" fill="#101828"/>
<path id="Vector_2" d="M34.8164 15.2477V18.7715H43.8756V21.1382H22.7461V18.7715H32.0552V15.2477H25.6388V7.59531H38.2218V4.62377H25.6388V2.33594H40.983V9.80425H28.3999V12.9467H41.3511V15.2346H34.8164V15.2477Z" fill="#101828"/>
<path id="Vector_3" d="M55.224 13.2887L51.3978 9.01542L47.427 13.5385L45.4941 11.9738L50.0698 6.79333V4.22939H46.4277V1.91526H56.2627V4.22939H52.7915V6.79333L57.17 11.724L55.2371 13.2887H55.224ZM62.9158 23.7022C62.6397 23.8074 62.3899 23.6496 62.3899 23.3735V17.391H49.7542V15.0769H65.0985V22.9791L62.9027 23.7022H62.9158ZM58.8135 14.2879C58.5374 14.3931 58.2876 14.2354 58.2876 13.9592V8.04244H55.2371V5.67572H58.2876V1.15266H60.9567V13.5779L58.8135 14.2879ZM62.9684 14.2879C62.6923 14.3931 62.4425 14.2354 62.4425 13.9592V0.902832H65.1116V13.5779L62.9684 14.2879Z" fill="#101828"/>
<path id="Vector_4" d="M68.2266 20.8882V18.5215H89.3561V20.8882H68.2266ZM73.8935 7.72663H86.4766V9.93557H73.8935V13.078H86.8448V15.3659H71.1192V2.4541H86.5949V4.74193H73.8935V7.71348V7.72663Z" fill="#101828"/>
<path id="Vector_5" d="M97.3242 21.3882V19.0215H101.4V4.78176H97.574V2.41504H104.122V19.0215H107.948V21.3882H97.3242Z" fill="#101828"/>
<path id="Vector_6" d="M116.772 21.8878C112.67 21.8878 110.461 19.3239 110.461 16.0499L113.222 15.8527C113.117 17.8118 114.432 19.5737 116.614 19.5737C119.034 19.5737 120.362 18.364 120.362 16.3523V15.879C120.362 13.9461 119.323 12.6839 116.812 12.6839H115.405V10.3698H116.693C118.534 10.3698 119.862 9.01547 119.862 7.5034V7.14839C119.862 5.36021 118.81 4.22944 116.614 4.22944C114.629 4.22944 113.419 5.74151 113.472 7.5297L110.711 7.33247C110.711 4.1111 113.077 1.92847 116.72 1.92847C120.362 1.92847 122.584 3.83499 122.584 6.91172V7.38507C122.584 8.81825 121.953 10.304 120.27 11.3822C122.255 12.3946 123.083 13.9461 123.083 15.7343V16.4443C123.083 20.0602 120.519 21.9009 116.772 21.9009V21.8878Z" fill="#101828"/>
<path id="Vector_7" d="M125.357 22.3874V19.3633H128.382V22.3874H125.357Z" fill="#101828"/>
<path id="Vector_8" d="M136.929 21.3882H134.036L140.834 4.72916H131.656V2.41504H143.661V4.72916L136.942 21.3882H136.929Z" fill="#101828"/>
</g>
</svg>
