<svg width="75" height="25" viewBox="0 0 75 25" fill="none" xmlns="http://www.w3.org/2000/svg">
<g id="Group">
<path id="Vector" d="M11.5427 1.01855H11.5358C5.16477 1.01855 0 6.18333 0 12.5544V12.5612C0 18.9323 5.16477 24.0971 11.5358 24.0971H11.5427C17.9137 24.0971 23.0785 18.9323 23.0785 12.5612V12.5544C23.0785 6.18333 17.9137 1.01855 11.5427 1.01855Z" fill="#004EEA"/>
<path id="Vector_2" d="M73.2687 14.2445C73.1937 14.1763 73.1256 14.1082 73.0506 14.04C73.0506 14.04 73.0506 14.04 73.0574 14.0332C73.146 13.9583 73.2278 13.8833 73.3095 13.8016C74.3521 12.759 74.9994 11.3145 74.9994 9.72006C74.9994 9.22265 74.938 8.73886 74.8154 8.27552C74.1749 5.78847 71.9195 3.94873 69.228 3.94873H67.1907C66.7819 2.26571 65.2692 1.01196 63.4567 1.01196C61.6442 1.01196 60.1316 2.26571 59.7227 3.94873H57.6854C56.091 3.94873 54.6532 4.59605 53.6039 5.63856C52.8884 6.35402 52.3638 7.25345 52.098 8.26871C51.9754 8.73205 51.9141 9.21583 51.9141 9.72006C51.9141 11.4371 52.6636 12.9771 53.856 14.0332C53.856 14.0332 53.856 14.04 53.8628 14.04C53.7879 14.1014 53.7129 14.1695 53.6448 14.2445L53.6039 14.2853C52.5069 15.4028 51.9549 16.861 51.9549 18.3259C51.9549 19.7909 52.5205 21.2763 53.6448 22.4074C55.8252 24.5879 59.3275 24.656 61.5897 22.6119C61.651 22.5573 61.7056 22.5028 61.7601 22.4483C62.3392 21.8691 62.7958 21.1673 63.082 20.3905C63.3204 19.7637 63.4499 19.0823 63.4499 18.3668C63.4499 19.0823 63.5794 19.7637 63.8179 20.3905C64.104 21.1537 64.5469 21.8351 65.0989 22.4006C65.1125 22.4143 65.1261 22.4279 65.1397 22.4415C67.3951 24.656 71.0201 24.6424 73.255 22.4006C74.3793 21.2763 74.9449 19.7977 74.9449 18.3191C74.9449 16.8405 74.3929 15.4028 73.2959 14.2785C73.2823 14.2649 73.2687 14.2513 73.255 14.2376L73.2687 14.2445Z" fill="#FF9930"/>
<path id="Vector_3" d="M45.6598 4.2825C43.5747 2.19746 40.6925 0.902832 37.5036 0.902832C34.3147 0.902832 31.4325 2.19746 29.3406 4.2825C27.2488 6.36754 25.9609 9.25661 25.9609 12.4387V23.9745C32.3319 23.9745 37.4968 18.8096 37.4968 12.4387C37.4968 18.8096 42.6617 23.9745 49.0326 23.9745V12.4387C49.0326 9.25661 47.738 6.36754 45.653 4.2825H45.6598Z" fill="#34C083"/>
</g>
</svg>
