<svg xmlns="http://www.w3.org/2000/svg" width="28" height="28" viewBox="0 0 28 28" fill="none">
  <g clip-path="url(#clip0_468_57)">
    <path d="M27.7263 14.3225C27.7263 13.3709 27.6492 12.414 27.4845 11.4778H14.2793V16.8689H21.8413C21.5275 18.6077 20.5192 20.1458 19.0429 21.1232V24.6213H23.5543C26.2036 22.1829 27.7263 18.582 27.7263 14.3225Z" fill="#4285F4"/>
    <path d="M14.2803 28.0009C18.0561 28.0009 21.2404 26.7611 23.5605 24.6211L19.049 21.1231C17.7938 21.977 16.1734 22.4606 14.2854 22.4606C10.633 22.4606 7.5362 19.9965 6.42505 16.6836H1.76953V20.2897C4.14616 25.0172 8.98688 28.0009 14.2803 28.0009Z" fill="#34A853"/>
    <path d="M6.41892 16.6837C5.83248 14.9449 5.83248 13.0621 6.41892 11.3234V7.71729H1.76855C-0.21712 11.6732 -0.21712 16.3339 1.76855 20.2898L6.41892 16.6837Z" fill="#FBBC04"/>
    <path d="M14.2803 5.54127C16.2762 5.51041 18.2053 6.26146 19.6508 7.64012L23.6479 3.64305C21.1169 1.26642 17.7578 -0.0402103 14.2803 0.000943444C8.98687 0.000943444 4.14616 2.98459 1.76953 7.71728L6.41991 11.3234C7.52591 8.00536 10.6279 5.54127 14.2803 5.54127Z" fill="#EA4335"/>
  </g>
  <defs>
    <clipPath id="clip0_468_57">
      <rect width="28" height="28" fill="white"/>
    </clipPath>
  </defs>
</svg>